<!DOCTYPE svg PUBLIC "-//W3C//DTD SVG 1.1//EN" "http://www.w3.org/Graphics/SVG/1.1/DTD/svg11.dtd">
<!-- Uploaded to: SVG Repo, www.svgrepo.com, Transformed by: SVG Repo Mixer Tools -->
<svg height="256px" width="256px" version="1.1" xmlns="http://www.w3.org/2000/svg" xmlns:xlink="http://www.w3.org/1999/xlink" viewBox="-6.4 -6.4 76.80 76.80" xml:space="preserve" fill="#000000">
<g id="SVGRepo_bgCarrier" stroke-width="0" transform="translate(0,0), scale(1)">
<path transform="translate(-6.4, -6.4), scale(2.4)" d="M16,27.374606081448935C18.103366785356325,27.45777577666607,19.81211312176909,25.82284480627299,21.5413406866261,24.622494415394804C23.21216034934578,23.462688108815154,25.053658128453897,22.37056555769381,25.883752769759965,20.513758647811258C26.711271573566286,18.662713530175356,25.80027111294053,16.56944644536675,26.041504847383315,14.556249563900973C26.39694833509188,11.589924299961078,29.142694918297504,8.49814460975512,27.632412662136673,5.920457050882193C26.20115967530431,3.4776533943419725,22.407367560233627,4.194130989212847,19.6346940731917,3.621368777664639C17.105360270334625,3.098874214406981,14.433100099636404,1.607630300851175,12.098138515730465,2.711480135109765C9.769508932945145,3.812336524664298,9.900476105886634,7.321304474527195,8.040092217646153,9.102700644002475C5.868692056171426,11.181908034745623,1.7560222537175778,11.027296532873558,0.5415422313118423,13.777409314224673C-0.6516024102713511,16.47920948243058,0.14837509530943027,20.1847120884288,2.213812331236465,22.29594095075099C4.290549709243529,24.418720484133388,7.94669496121559,23.16857674308553,10.733308710035674,24.195131612269705C12.697336573060657,24.91865577016758,13.908576134707527,27.291908623897918,16,27.374606081448935" fill="#37bbe6" strokewidth="0"/>
</g>
<g id="SVGRepo_tracerCarrier" stroke-linecap="round" stroke-linejoin="round"/>
<g id="SVGRepo_iconCarrier"> <style type="text/css"> .st0{fill:#E0E0D1;} .st1{opacity:0.2;} .st2{fill:#231F20;} .st3{fill:#E0995E;} .st4{fill:#C75C5C;} .st5{fill:#F5CF87;} .st6{fill:#76C2AF;} .st7{fill:#FFFFFF;} .st8{fill:#4F5D73;} </style> <g id="Layer_1"> <g> <circle class="st0" cx="31.8" cy="32" r="32"/> </g> <g class="st1"> <path class="st2" d="M32,12c-8.5,0-18,5.4-21.1,15.7c-1.6,5.2,5.2,3.1,5.6,9.2c0.4,4.9-1.1,6.6-1.4,9.6c-0.4,4,8.9,10,17.2,9.6 C44.6,55.4,54,46.3,54,34S44.3,12,32,12z M24,48c-2.2,0-4-1.8-4-4c0-2.2,1.8-4,4-4s4,1.8,4,4C28,46.2,26.2,48,24,48z"/> </g> <g> <path class="st3" d="M32,10c-8.5,0-18,5.4-21.1,15.7c-1.6,5.2,5.2,3.1,5.6,9.2c0.4,4.9-1.1,6.6-1.4,9.6c-0.4,4,8.9,10,17.2,9.6 C44.6,53.4,54,44.3,54,32S44.3,10,32,10z M24,46c-2.2,0-4-1.8-4-4c0-2.2,1.8-4,4-4s4,1.8,4,4C28,44.2,26.2,46,24,46z"/> </g> <g class="st1"> <circle class="st2" cx="20.7" cy="25" r="4"/> </g> <g class="st1"> <circle class="st2" cx="32" cy="19.6" r="4"/> </g> <g class="st1"> <circle class="st2" cx="43.2" cy="24.7" r="4"/> </g> <g class="st1"> <circle class="st2" cx="46.2" cy="37.3" r="4"/> </g> <g class="st1"> <circle class="st2" cx="37.1" cy="47.1" r="4"/> </g> <g> <circle class="st4" cx="20.7" cy="23" r="4"/> </g> <g> <circle class="st5" cx="32" cy="17.6" r="4"/> </g> <g> <circle class="st6" cx="43.2" cy="22.7" r="4"/> </g> <g> <circle class="st7" cx="46.2" cy="35.3" r="4"/> </g> <g> <circle class="st8" cx="37.1" cy="45.1" r="4"/> </g> </g> <g id="Layer_2"> </g> </g>
</svg>